<svg width="255" height="67" viewBox="0 0 255 67" fill="none" xmlns="http://www.w3.org/2000/svg">
<g clipPath="url(#clip0_1085_2538)">
<path d="M35.1874 15.0965C34.7727 15.0358 34.3555 15.0029 33.9458 15.0029C27.7782 15.0029 23.3656 21.7673 21.7548 24.6779C21.4109 25.2974 21.4691 26.0586 21.8989 26.6174C22.2631 27.0877 22.8295 27.3431 23.4238 27.2976C24.0205 27.2521 24.549 26.9133 24.8424 26.3898C26.4582 23.4995 29.7886 18.6494 33.9635 18.6494C34.1911 18.6494 34.4212 18.6671 34.6463 18.7025C38.0525 19.2133 39.9111 25.3277 39.2713 33.9153C38.4116 45.459 33.2631 57.8169 26.969 57.8169C17.858 57.8169 6.6001 43.7774 4.11689 32.7116C3.32034 29.1613 3.13068 24.5717 6.76194 22.8546C7.26516 22.6169 7.82401 22.4981 8.41826 22.4981C12.7247 22.4981 18.1842 28.385 20.9734 34.0746C22.8497 37.9006 22.6955 40.045 22.2024 40.2953C22.1139 40.3408 22.0026 40.3636 21.8711 40.3636C20.5182 40.3636 17.4787 38.022 14.8008 34.9142C14.1635 34.1758 13.0635 34.0645 12.2973 34.6664C11.9003 34.9749 11.6576 35.4199 11.607 35.9206C11.5564 36.4213 11.7107 36.9093 12.0394 37.2912C14.1888 39.7921 18.3334 43.9873 21.9546 43.9873C22.6348 43.9873 23.2746 43.8381 23.8536 43.5422C26.7718 42.0604 26.9185 37.9208 24.2456 32.4689C21.0088 25.8664 14.3507 18.8466 8.39297 18.8466C7.2778 18.8466 6.20562 19.0868 5.20424 19.5597C0.672751 21.7015 -0.975983 26.6553 0.561487 33.5082C3.38355 46.0912 16.1258 61.4583 26.969 61.4583C36.558 61.4583 42.0605 45.5096 42.9051 34.1834C43.732 23.0797 40.8467 15.9436 35.1874 15.094V15.0965Z" fill="#009FE3"/>
<path d="M32.3779 10.5094C32.7774 10.5979 33.182 10.6409 33.579 10.6409C34.9901 10.6409 36.3429 10.0947 37.3544 9.08572C38.6491 7.79101 39.1827 5.92986 38.7781 4.10665C38.3457 2.16205 36.7501 0.563891 34.8055 0.131478C32.9848 -0.27312 31.1236 0.260443 29.8264 1.55515C28.5317 2.84987 27.9981 4.71101 28.4027 6.53423C28.8351 8.47883 30.4308 10.077 32.3779 10.5069V10.5094Z" fill="#009FE3"/>
<path d="M5.08532 14.6919C5.48739 14.7804 5.88946 14.8234 6.28647 14.8234C7.6975 14.8234 9.0529 14.2772 10.0619 13.2657C11.3566 11.971 11.8901 10.1098 11.4855 8.28914C11.0531 6.34455 9.4575 4.74639 7.5129 4.31397C5.69221 3.90938 3.83107 4.44294 2.53636 5.73765C1.24164 7.03236 0.708081 8.89351 1.11268 10.7142C1.54509 12.6588 3.14072 14.257 5.08532 14.6894V14.6919Z" fill="#009FE3"/>
<path d="M54.5498 20.8038C52.6229 20.8038 51.0576 22.3716 51.0576 24.296C51.0576 26.2204 52.5926 27.8388 54.5498 27.8388C56.507 27.8388 58.042 26.2836 58.042 24.296C58.042 22.3084 56.4742 20.8038 54.5498 20.8038Z" fill="#0B236D"/>
<path d="M57.7461 31.3082H51.356V56.6158H57.7461V31.3082Z" fill="#0B236D"/>
<path d="M90.6954 30.8606C86.9453 30.8606 84.0979 32.1503 82.2317 34.6916C80.3655 32.1477 77.5182 30.8606 73.7681 30.8606C65.274 30.8606 62.1106 37.4328 62.1106 41.5723V56.6157H68.5007V41.7215C68.5007 38.0928 71.2216 36.8006 73.7706 36.8006C76.3196 36.8006 79.0405 38.0928 79.0405 41.7215V56.6157H85.4306V41.7215C85.4306 38.0928 88.1515 36.8006 90.7005 36.8006C93.2494 36.8006 95.9703 38.0928 95.9703 41.7215V56.6157H102.36V41.5723C102.36 37.4302 99.1945 30.8606 90.703 30.8606H90.6954Z" fill="#0B236D"/>
<path d="M119.971 30.9111C112.197 30.9111 106.768 36.2569 106.768 43.9139V66.5739H113.158V54.527C114.66 56.0923 117.265 57.0152 120.269 57.0152C127.719 57.0152 132.923 51.6265 132.923 43.9139C132.923 36.2012 127.719 30.9111 119.971 30.9111ZM126.533 43.9619C126.533 48.3771 123.961 51.1233 119.819 51.1233C115.677 51.1233 113.156 48.3796 113.156 43.9619C113.156 39.5442 115.71 36.8006 119.819 36.8006C123.928 36.8006 126.533 39.5442 126.533 43.9619Z" fill="#0B236D"/>
<path d="M149.592 30.9592C141.786 30.9592 136.539 36.1836 136.539 43.962C136.539 51.7404 141.723 57.0633 149.142 57.0633C152.176 57.0633 154.799 56.1429 156.303 54.5751V56.6158H162.691V44.0631C162.691 36.2266 157.426 30.9618 149.59 30.9618L149.592 30.9592ZM149.643 51.1739C145.503 51.1739 142.929 48.4302 142.929 44.0126C142.929 39.5949 145.501 36.8512 149.643 36.8512C153.785 36.8512 156.306 39.5949 156.306 44.0126C156.306 48.4302 153.752 51.1739 149.643 51.1739Z" fill="#0B236D"/>
<path d="M185.745 47.3202C184.721 49.8059 182.544 51.174 179.616 51.174C175.507 51.174 172.953 48.4303 172.953 44.0126C172.953 39.5949 175.507 36.8512 179.616 36.8512C182.514 36.8512 184.673 38.1687 185.697 40.5583L185.751 40.6848H192.371L192.313 40.4319C190.98 34.5905 186.132 30.9618 179.664 30.9618C171.827 30.9618 166.562 36.1862 166.562 43.9645C166.562 51.7429 171.827 57.0659 179.664 57.0659C186.213 57.0659 190.96 53.47 192.361 47.4466L192.419 47.1912H185.796L185.743 47.3202H185.745Z" fill="#0B236D"/>
<path d="M202.524 44.9077V37.2001H208.198V31.3082H202.524V21.3525H196.134V44.9583C196.134 52.8125 200.526 56.9647 208.838 56.9647H209.045V51.0727H208.838C204.294 51.0727 202.524 49.3431 202.524 44.9077Z" fill="#0B236D"/>
<path d="M224.521 30.9592C216.715 30.9592 211.468 36.1836 211.468 43.962C211.468 51.7404 216.652 57.0633 224.071 57.0633C227.105 57.0633 229.728 56.1429 231.232 54.5751V56.6158H237.62V44.0631C237.62 36.2266 232.355 30.9618 224.519 30.9618L224.521 30.9592ZM224.572 51.1739C220.432 51.1739 217.858 48.4302 217.858 44.0126C217.858 39.5949 220.43 36.8512 224.572 36.8512C228.714 36.8512 231.235 39.5949 231.235 44.0126C231.235 48.4302 228.681 51.1739 224.572 51.1739Z" fill="#0B236D"/>
<path d="M254.793 30.8606C246.815 30.8606 242.238 35.0912 242.238 42.47V56.6157H248.628V42.47C248.628 38.73 250.759 36.7525 254.793 36.7525H255V30.8606H254.793Z" fill="#0B236D"/>
<path d="M97.566 21.259C96.643 18.7505 94.3191 17.428 90.655 17.3243C89.3931 17.294 89.2262 17.122 89.2237 17.1473C89.2237 17.1372 89.2161 17.0487 89.3198 16.6896C89.4007 16.4115 89.5145 16.1004 89.6561 15.7717C90.8623 13.162 91.229 10.5979 90.7435 8.14757L90.6525 7.68986C90.4906 6.954 90.3313 6.40527 90.177 6.0563C90.0203 5.70734 89.7598 5.3078 89.4083 4.87538C88.3058 3.38849 86.695 2.37194 84.6265 1.85355C83.5265 1.5501 82.5276 1.38826 81.6578 1.36803C80.7803 1.3478 79.7511 1.45401 78.6005 1.68159L78.4817 1.70435C76.3069 2.13424 74.1247 3.02688 71.9955 4.35952C68.5867 6.42044 67.0948 7.86435 67.3021 8.90366C67.3729 9.26274 67.598 9.65469 67.9874 10.0997C68.3693 10.5372 68.7435 10.8331 69.095 10.9823C69.4895 11.1391 69.8941 11.182 70.2987 11.1011C70.7437 11.0126 71.1913 10.7825 71.6237 10.4184C72.2407 9.92274 73.1258 9.31331 74.2536 8.60779C75.389 7.89975 76.3449 7.3409 77.0858 6.954C78.3072 6.3901 79.5437 5.98044 80.76 5.74021L81.0863 5.67699C82.4113 5.46458 83.5695 5.48734 84.5329 5.74527C85.3446 5.95515 85.8656 6.23331 86.078 6.57469C86.3056 6.94136 86.4548 7.30044 86.523 7.63929C86.604 8.04894 86.6267 8.53446 86.5913 9.09331C86.5534 11.2781 85.5722 13.7184 83.6732 16.3482C82.8538 17.4887 82.0446 18.4749 81.2658 19.2816C80.3529 20.2248 79.9635 20.4676 79.7612 20.5282C79.7561 20.5207 79.746 20.5131 79.7359 20.4979C79.7132 20.4676 79.6702 20.3866 79.6348 20.197L79.4097 19.059C79.3313 18.5786 79.2276 17.9312 79.1012 17.1145L78.5929 14.0294C78.421 12.9926 78.2819 12.1986 78.1757 11.665L77.7812 9.66733L76.9644 9.16664C76.3651 8.82274 75.8265 8.6963 75.3637 8.78481C75.1968 8.81768 75.0401 8.87837 74.9086 8.96182C74.3421 9.29814 74.0488 9.95814 74.0437 10.9317C74.1095 13.0204 74.5621 16.2193 75.3966 20.4372C75.5635 21.2818 75.7481 22.1719 75.9479 23.105C76.5042 25.7602 76.9847 27.8135 77.3741 29.2069C77.7635 30.5977 78.2237 31.9101 78.7421 33.1036C78.9166 33.5032 79.038 33.8066 79.1012 34.0013C79.1619 34.1935 79.2049 34.3503 79.2302 34.4717L79.2605 34.6183C79.2706 34.7397 79.2555 34.8763 79.2074 35.0482C79.1771 35.2429 79.1568 35.4427 79.1467 35.6501C79.1366 35.8701 79.1417 36.0395 79.167 36.1685C79.2428 36.5478 79.4906 36.9448 79.9256 37.3873C80.1683 37.6326 80.4187 37.8349 80.6715 37.9942L81.2405 38.2825C81.4909 38.3432 81.764 38.3735 82.0522 38.3735C82.3405 38.3735 82.6743 38.3406 83.0132 38.2749C83.9513 38.0903 85.0538 37.6528 86.2955 36.9726C87.3676 36.3455 88.5966 35.4908 89.9469 34.4312C91.2998 33.3717 92.5338 32.3071 93.6212 31.2627C95.7504 29.0829 97.1159 27.0625 97.6849 25.2519C97.8593 24.5919 97.9403 23.9724 97.9226 23.4135C97.9049 22.8547 97.8669 22.4197 97.8012 22.091C97.743 21.7951 97.6621 21.5144 97.5584 21.259H97.566ZM80.9143 26.051C80.9345 25.8259 81.0433 25.5073 81.7412 25.3682C81.8171 25.3531 81.9561 25.3126 82.3127 25.123C82.558 24.9915 82.8159 24.8397 83.0764 24.6653C84.0879 23.9648 85.2435 23.3655 86.5154 22.8876C87.7925 22.4071 88.9481 22.0632 89.9469 21.8685C90.2605 21.8053 90.569 21.7547 90.8699 21.7092C91.3883 21.6358 91.8207 21.5979 92.1596 21.5979C92.3872 21.5979 92.5718 21.6156 92.7159 21.6485C93.0219 21.7218 93.1964 21.8887 93.2697 22.1896C93.4518 23.105 92.7892 24.4731 91.2998 26.2533C89.7826 28.0689 87.7191 29.9275 85.1727 31.771C84.2219 32.4613 83.8577 32.6687 83.7161 32.7243C83.4405 32.8305 83.3368 32.8583 83.2964 32.8659C83.0663 32.914 82.9853 32.8432 82.9702 32.828C82.9246 32.7825 82.7856 32.5852 82.4821 31.7558C82.252 31.1262 82.0067 30.3903 81.7538 29.5685C81.5035 28.7517 81.3189 28.1069 81.2051 27.6567C81.0913 27.2066 81.018 26.8931 80.9851 26.7211C80.9017 26.2963 80.9067 26.1269 80.9194 26.051H80.9143Z" fill="#009FE3"/>
<path d="M116.719 18.088C116.547 17.2231 116.342 16.4746 116.102 15.8627C115.75 15.0257 115.179 14.0951 114.4 13.0988C112.941 11.1516 111.302 10.0137 109.535 9.71785C109.054 9.62429 108.604 9.58888 108.197 9.62176C107.8 9.64957 107.223 9.73808 106.487 9.88222C105.939 9.99095 105.511 10.0845 105.218 10.1578C104.917 10.2337 104.654 10.3399 104.437 10.4739C104.227 10.6029 103.976 10.79 103.688 11.0303C101.094 13.2227 100.067 16.5682 100.633 20.9732C100.674 21.2666 100.722 21.5498 100.775 21.8229C101.298 24.473 102.398 26.7034 104.047 28.4507C105.875 30.4054 108.136 31.5155 110.758 31.7507C110.973 31.776 111.183 31.7886 111.393 31.7886C111.712 31.7886 112.025 31.7583 112.326 31.7001C113.672 31.4346 114.766 30.5445 115.578 29.0601C117.131 26.5769 117.578 23.2592 116.911 19.1955C116.85 18.8086 116.787 18.4369 116.716 18.0854L116.719 18.088ZM112.789 22.005C112.726 22.9811 112.529 23.9319 112.205 24.827C111.886 25.7096 111.492 26.3948 111.044 26.8525C110.766 27.1029 110.435 27.2647 110.058 27.3406C109.722 27.4063 109.347 27.3937 108.948 27.3052C108.08 27.1029 107.314 26.6073 106.685 25.8486C105.982 24.8827 105.486 23.6942 105.213 22.3135C105.129 21.8962 105.066 21.4486 105.023 20.9859C104.846 19.0261 105.117 17.3951 105.822 16.1434C106.338 15.3139 106.879 14.7576 107.428 14.487C107.995 14.2064 108.45 14.0319 108.781 13.9661C109.006 13.9231 109.229 13.9004 109.446 13.9004C109.676 13.9004 109.901 13.9257 110.114 13.9712C110.882 14.2316 111.593 15.1293 112.217 16.6263C112.321 16.9096 112.415 17.256 112.493 17.653C112.574 18.0627 112.64 18.5254 112.693 19.0337C112.809 20.0351 112.842 21.0339 112.789 22.0024V22.005Z" fill="#009FE3"/>
<path d="M134.771 5.74774C133.434 4.25073 131.679 3.70199 129.56 4.11923C129.221 4.18498 128.872 4.27854 128.52 4.39992C127.069 4.8905 125.84 5.92981 124.866 7.49003C124.606 7.89716 124.371 8.22842 124.171 8.46865C124.032 8.62038 123.948 8.69624 123.905 8.73164C123.885 8.71394 123.857 8.68612 123.824 8.64566C123.744 8.54704 123.668 8.43578 123.609 8.33463C123.319 7.66704 122.881 7.18659 122.305 6.9059C121.791 6.66819 121.286 6.59233 120.8 6.69095C120.767 6.69854 120.615 6.74153 120.347 6.81739C120.011 6.91601 119.763 7.28268 119.586 7.96544C119.518 8.499 119.632 9.51302 119.938 11.0606C119.986 11.2983 120.127 11.976 120.365 13.0962C120.6 14.2139 121.058 15.9512 121.718 18.2599C122.381 20.5762 123.053 22.6017 123.713 24.2808C124.517 26.2861 125.516 27.4089 126.682 27.6188H126.687C126.781 27.6339 126.877 27.6415 126.97 27.6415C127.084 27.6415 127.195 27.6314 127.304 27.6086C127.64 27.5429 127.934 27.3507 128.161 27.0523C128.257 26.9461 128.295 26.7691 128.288 26.4581C128.28 26.2077 128.232 25.8132 128.144 25.2797C128.055 24.7512 127.918 24.0153 127.734 23.0746C127.529 22.0353 127.377 21.2109 127.286 20.6192C127.195 20.0401 127.14 19.5192 127.117 19.0767C127.094 18.6417 127.104 18.1082 127.147 17.4886C127.228 13.9484 127.772 11.488 128.768 10.1604C129.471 9.09072 130.311 8.44842 131.264 8.2436L131.431 8.21072C131.676 8.16015 131.896 8.15256 132.083 8.18038C132.273 8.21072 132.554 8.32199 132.92 8.51417C133.555 8.83785 134.068 8.95417 134.483 8.87072C134.794 8.81003 135.044 8.62796 135.226 8.33463C135.431 8.00842 135.484 7.59624 135.391 7.11578C135.297 6.64291 135.092 6.18774 134.769 5.74268L134.771 5.74774Z" fill="#009FE3"/>
<path d="M157.735 20.1313C157.687 19.8885 157.593 19.6356 157.452 19.3802C157.148 18.8265 156.698 18.3814 156.109 18.0602L156.086 18.0501C155.765 17.9212 155.517 17.7163 155.325 17.4205C155.125 17.112 154.915 16.5051 154.7 15.6175C154.48 14.7147 154.174 13.2607 153.787 11.2959L152.753 6.04876L151.683 4.63267C149.966 2.37704 148.004 1.44647 145.845 1.87383C145.68 1.9067 145.508 1.94969 145.326 2.00279C143.71 2.50854 142.459 3.52256 141.609 5.01198C140.772 6.47865 140.216 8.00853 139.955 9.55359C139.583 11.2832 139.389 12.8915 139.374 14.3304C139.358 15.7692 139.442 16.9552 139.619 17.8554C139.796 18.7556 140.074 19.6407 140.446 20.4979C140.974 21.5575 141.68 22.4729 142.545 23.2189C143.415 23.975 144.317 24.4327 145.223 24.5819C145.422 24.6147 145.622 24.6299 145.819 24.6299C146.049 24.6299 146.28 24.6071 146.507 24.5641C148.141 24.2405 149.635 22.7435 150.948 20.1161C151.109 19.8152 151.269 19.5471 151.42 19.3196C151.512 19.183 151.57 19.1097 151.6 19.0743C151.646 19.1071 151.726 19.1754 151.863 19.3094C152.088 19.537 152.341 19.8202 152.609 20.1439C153.679 21.5019 154.723 22.2175 155.707 22.2655C155.894 22.2807 156.081 22.2756 156.258 22.2402C156.506 22.1922 156.738 22.0986 156.943 21.9697C157.325 21.7471 157.583 21.4563 157.709 21.0947C157.795 20.7862 157.806 20.46 157.74 20.1262L157.735 20.1313ZM144.874 19.9543C144.8 19.9694 144.74 19.9543 144.679 19.9163C144.537 19.8228 144.335 19.537 144.173 18.7177L144.15 18.6039C143.968 17.5191 143.923 16.194 144.011 14.6642C144.1 13.1292 144.343 11.6373 144.729 10.2338C145.255 8.56738 145.814 7.44463 146.391 6.89842C147.104 6.22072 147.468 6.03612 147.65 6.00072C147.703 5.9906 147.756 5.98555 147.804 5.98555C148.05 5.98555 148.257 6.11198 148.434 6.36486C148.51 6.50899 148.586 6.6683 148.659 6.83773C148.73 6.99957 148.775 7.13106 148.793 7.22463C148.823 7.37129 148.826 7.82899 148.677 9.16669C148.555 10.2515 148.396 11.4021 148.201 12.5805C148.007 13.7563 147.832 14.6642 147.678 15.2786C147.425 16.1359 147.069 17.0083 146.613 17.8655C146.166 18.7152 145.741 19.3094 145.359 19.6306C145.25 19.714 145.139 19.7899 145.028 19.8607C144.906 19.934 144.869 19.9517 144.871 19.9517L144.874 19.9543Z" fill="#009FE3"/>
</g>
<defs>
<clipPath id="clip0_1085_2538">
<rect width="255" height="66.574" fill="white"/>
</clipPath>
</defs>
</svg>
